<?xml version="1.0"?>
<svg width="780" height="930" xmlns="http://www.w3.org/2000/svg" xmlns:svg="http://www.w3.org/2000/svg" version="1.1">
 <metadata id="metadata7">image/svg+xml</metadata>
 <g class="layer">
  <title>Layer 1</title>
  <g id="layer1" transform="rotate(-23.8695 285.428 439.003)">
   <path d="m-6,822.48l288.57,-777.14l294.28,774.28c-194.28,100.44 -388.57,122.92 -582.85,2.86z" fill="#ff6a9d" fill-rule="nonzero" id="path2985"/>
   <path d="m336.85,519.62c-2.14,2.15 -51.69,-26.95 -54.69,-26.48c-3,0.48 -41.12,43.46 -43.83,42.09c-2.71,-1.38 9.66,-57.49 8.28,-60.2c-1.38,-2.71 -54.04,-25.68 -53.56,-28.68c0.47,-3 57.66,-8.58 59.8,-10.73c2.15,-2.15 7.73,-59.33 10.73,-59.81c3,-0.47 25.98,52.19 28.68,53.57c2.71,1.38 58.82,-10.99 60.2,-8.28c1.38,2.71 -41.61,40.83 -42.08,43.83c-0.48,3 28.62,52.54 26.47,54.69z" fill="#fffcc2" fill-rule="nonzero" id="path3755" transform="translate(20.2031 -80.8122)"/>
   <path d="m259.7,521.28c-2.14,2.15 -51.69,-26.95 -54.69,-26.48c-3,0.48 -41.12,43.46 -43.83,42.09c-2.71,-1.38 9.66,-57.49 8.28,-60.2c-1.38,-2.71 -54.04,-25.68 -53.56,-28.68c0.47,-3 57.66,-8.58 59.8,-10.73c2.15,-2.15 7.73,-59.33 10.73,-59.81c3,-0.47 25.98,52.19 28.68,53.57c2.71,1.38 58.82,-10.99 60.2,-8.28c1.38,2.71 -41.61,40.83 -42.08,43.83c-0.48,3 28.62,52.54 26.47,54.69z" fill="#c2f0ff" fill-rule="nonzero" id="path3757" transform="matrix(0.557532 0.200802 -0.200802 0.557532 120.643 390.589)"/>
   <path d="m306.15,602.71c-2.14,2.15 -51.69,-26.95 -54.69,-26.48c-3,0.48 -41.12,43.46 -43.83,42.09c-2.71,-1.38 9.66,-57.49 8.28,-60.2c-1.38,-2.71 -54.04,-25.68 -53.56,-28.68c0.47,-3 57.66,-8.58 59.8,-10.73c2.15,-2.15 7.73,-59.33 10.73,-59.81c3,-0.47 25.98,52.19 28.68,53.57c2.71,1.38 58.82,-10.99 60.2,-8.28c1.38,2.71 -41.61,40.83 -42.08,43.83c-0.48,3 28.62,52.54 26.47,54.69z" fill="#fffcc2" fill-rule="nonzero" id="path3759" transform="matrix(0.549312 0.748906 -0.748906 0.549312 568.055 215.612)"/>
   <path d="m261.87,388.34c-2.14,2.15 -51.69,-26.95 -54.69,-26.48c-3,0.48 -41.12,43.46 -43.83,42.09c-2.71,-1.38 9.66,-57.49 8.28,-60.2c-1.38,-2.71 -54.04,-25.68 -53.56,-28.68c0.47,-3 57.66,-8.58 59.8,-10.73c2.15,-2.15 7.73,-59.33 10.73,-59.81c3,-0.47 25.98,52.19 28.68,53.57c2.71,1.38 58.82,-10.99 60.2,-8.28c1.38,2.71 -41.61,40.83 -42.08,43.83c-0.48,3 28.62,52.54 26.47,54.69z" fill="#c7ffc2" fill-rule="nonzero" id="path3761" transform="matrix(0.381148 -0.0717875 0.0717875 0.381148 79.266 439.75)"/>
   <path d="m410.46,425.03c-2.14,2.15 -51.69,-26.95 -54.69,-26.48c-3,0.48 -41.12,43.46 -43.83,42.09c-2.71,-1.38 9.66,-57.49 8.28,-60.2c-1.38,-2.71 -54.04,-25.68 -53.56,-28.68c0.47,-3 57.66,-8.58 59.8,-10.73c2.15,-2.15 7.73,-59.33 10.73,-59.81c3,-0.47 25.98,52.19 28.68,53.57c2.71,1.38 58.82,-10.99 60.2,-8.28c1.38,2.71 -41.61,40.83 -42.08,43.83c-0.48,3 28.62,52.54 26.47,54.69z" fill="#c2fdff" fill-rule="nonzero" id="path3763" transform="matrix(0.390845 -0.445425 0.445425 0.390845 110.593 592.058)"/>
   <path d="m379.67,427.1c-2.14,2.15 -51.69,-26.95 -54.69,-26.48c-3,0.48 -41.12,43.46 -43.83,42.09c-2.71,-1.38 9.66,-57.49 8.28,-60.2c-1.38,-2.71 -54.04,-25.68 -53.56,-28.68c0.47,-3 57.66,-8.58 59.8,-10.73c2.15,-2.15 7.73,-59.33 10.73,-59.81c3,-0.47 25.98,52.19 28.68,53.57c2.71,1.38 58.82,-10.99 60.2,-8.28c1.38,2.71 -41.61,40.83 -42.08,43.83c-0.48,3 28.62,52.54 26.47,54.69z" fill="#c2f0ff" fill-rule="nonzero" id="path3765" transform="matrix(0.469617 -0.361418 0.361418 0.469617 147.565 733.918)"/>
   <path d="m163.29,594.97c-2.14,2.15 -51.69,-26.95 -54.69,-26.48c-3,0.48 -41.12,43.46 -43.83,42.09c-2.71,-1.38 9.66,-57.49 8.28,-60.2c-1.38,-2.71 -54.04,-25.68 -53.56,-28.68c0.47,-3 57.66,-8.58 59.8,-10.73c2.15,-2.15 7.73,-59.33 10.73,-59.81c3,-0.47 25.98,52.19 28.68,53.57c2.71,1.38 58.82,-10.99 60.2,-8.28c1.38,2.71 -41.61,40.83 -42.08,43.83c-0.48,3 28.62,52.54 26.47,54.69z" fill="#c7ffc2" fill-rule="nonzero" id="path3769" transform="matrix(0.271253 0.277216 -0.277216 0.271253 293.915 645.402)"/>
   <path d="m190.88,696.65c-2.14,2.15 -51.69,-26.95 -54.69,-26.48c-3,0.48 -41.12,43.46 -43.83,42.09c-2.71,-1.38 9.66,-57.49 8.28,-60.2c-1.38,-2.71 -54.04,-25.68 -53.56,-28.68c0.47,-3 57.66,-8.58 59.8,-10.73c2.15,-2.15 7.73,-59.33 10.73,-59.81c3,-0.47 25.98,52.19 28.68,53.57c2.71,1.38 58.82,-10.99 60.2,-8.28c1.38,2.71 -41.61,40.83 -42.08,43.83c-0.48,3 28.62,52.54 26.47,54.69z" fill="#c7ffc2" fill-rule="nonzero" id="path3771" transform="matrix(0.128207 0.366046 -0.366046 0.128207 658.553 552.227)"/>
   <path d="m190.88,696.65c-2.14,2.15 -51.69,-26.95 -54.69,-26.48c-3,0.48 -41.12,43.46 -43.83,42.09c-2.71,-1.38 9.66,-57.49 8.28,-60.2c-1.38,-2.71 -54.04,-25.68 -53.56,-28.68c0.47,-3 57.66,-8.58 59.8,-10.73c2.15,-2.15 7.73,-59.33 10.73,-59.81c3,-0.47 25.98,52.19 28.68,53.57c2.71,1.38 58.82,-10.99 60.2,-8.28c1.38,2.71 -41.61,40.83 -42.08,43.83c-0.48,3 28.62,52.54 26.47,54.69z" fill="#c7ffc2" fill-rule="nonzero" id="path3773" transform="matrix(0.128207 0.366046 -0.366046 0.128207 521.172 384.542)"/>
   <path d="m409.95,72.99c0,70.3 -56.98,127.28 -127.28,127.28c-70.29,0 -127.28,-56.98 -127.28,-127.28c0,-70.29 56.99,-127.28 127.28,-127.28c70.3,0 127.28,56.99 127.28,127.28z" fill="#93ffac" fill-rule="nonzero" id="path3777" transform="translate(-6.06092 28.2843)"/>
  </g>
 </g>
</svg>